<?xml version="1.0" encoding="utf-8"?>
<!-- Generator: Adobe Illustrator 24.1.1, SVG Export Plug-In . SVG Version: 6.00 Build 0)  -->
<svg version="1.1" id="레이어_1" xmlns="http://www.w3.org/2000/svg" xmlns:xlink="http://www.w3.org/1999/xlink" x="0px"
	 y="0px" viewBox="0 0 483.1 882" style="enable-background:new 0 0 483.1 882;" xml:space="preserve">
<style type="text/css">
	.st0{fill:#FFFFFF;}
	.st1{font-family:'SegoeUI';}
	.st2{font-size:27px;}
	.st3{font-size:11px;}
	.st4{fill:#707070;}
</style>
<g id="그룹_9" transform="translate(-97 -264)">
	<text transform="matrix(1 0 0 1 102 293)" class="st0 st1 st2">Software &amp;</text>
	<text transform="matrix(1 0 0 1 102 329)" class="st0 st1 st2">Embedded System Engineer</text>
	<text transform="matrix(1 0 0 1 142 416)" class="st0 st1 st3">1, PROFILE</text>
	<text transform="matrix(1 0 0 1 100 467)" class="st0 st1 st3">Byounghern Joe Kim is a software and embedded system engineer based in Ulsan, South Korea.</text>
	<text transform="matrix(1 0 0 1 100 482)" class="st0 st1 st3">He currently works at Ulsan National Institute of Science and Technology as a researcher.</text>
	<text transform="matrix(1 0 0 1 100 497)" class="st0 st1 st3">He enjoys working on development of product-service system idea with good friends.</text>
	<g id="그룹_5">
		<g id="그룹_1">
			<text transform="matrix(1 0 0 1 142 416)" class="st0 st1 st3">1, PROFILE</text>
			<text transform="matrix(1 0 0 1 100 467)" class="st0 st1 st3">Byounghern Joe Kim is a software and embedded system engineer based in Ulsan, South Korea.</text>
			<text transform="matrix(1 0 0 1 100 482)" class="st0 st1 st3">He currently works at Ulsan National Institute of Science and Technology as a researcher.</text>
			<text transform="matrix(1 0 0 1 100 497)" class="st0 st1 st3">He enjoys working on development of product-service system idea with good friends.</text>
		</g>
		<g id="그룹_2" transform="translate(0 168)">
			<text transform="matrix(1 0 0 1 142 416)" class="st0 st1 st3">2. RECOGNITION</text>
			<text transform="matrix(1 0 0 1 142 431)" class="st0 st1 st3">(5 ITEMS)</text>
			<text transform="matrix(1 0 0 1 100 467)" class="st0 st1 st3">i.   Startup Expriences ( 6 )</text>
			<text transform="matrix(1 0 0 1 100 482)" class="st0 st1 st3">ii.  Patents ( 6 )</text>
			<text transform="matrix(1 0 0 1 100 497)" class="st0 st1 st3">iii. Design Research ( 4 )</text>
			<text transform="matrix(1 0 0 1 100 512)" class="st0 st1 st3">iv. Software &amp; Embedded System Projects (20)</text>
			<text transform="matrix(1 0 0 1 100 527)" class="st0 st1 st3">v.  IT Lecturer (10)</text>
		</g>
		<g id="그룹_3" transform="translate(0 336)">
			<text transform="matrix(1 0 0 1 142 416)" class="st0 st1 st3">3, ASSOCIATED GROUPS</text>
			<text transform="matrix(1 0 0 1 100 467)" class="st0 st1 st3">Design &amp; Electronic Convergence System Lab, UNIST.</text>
			<text transform="matrix(1 0 0 1 100 482)" class="st0 st1 st3">POSTECH Creative Entrepreneur Omphalos</text>
			<text transform="matrix(1 0 0 1 100 497)" class="st0 st1 st3">Software Maestro</text>
		</g>
		<g id="그룹_4" transform="translate(0 504)">
			<text transform="matrix(1 0 0 1 142 416)" class="st0 st1 st3">4, CONTACT</text>
			<text transform="matrix(1 0 0 1 100 467)" class="st0 st1 st3">Instagram</text>
			<text transform="matrix(1 0 0 1 100 482)" class="st0 st1 st3">Mail</text>
		</g>
	</g>
	<text transform="matrix(1 0 0 1 97 1143)" class="st0 st1 st3">Location Ulsan, South Korea.</text>
	<g id="패스_1" transform="matrix(1, 0.017, -0.017, 1, 434.082, 1024)">
		<path class="st0" d="M145.5,61.5H0.5l0-61l145,0V61.5z"/>
		<path class="st4" d="M1,1v60h144V1L1,1 M0,0l146,0v62H0L0,0z"/>
	</g>
	<text transform="matrix(1 0 0 1 488 1061)" class="st1 st3">Archive</text>
</g>
</svg>
