<?xml version="1.0" encoding="utf-8"?>
<!-- Generator: Adobe Illustrator 24.1.1, SVG Export Plug-In . SVG Version: 6.00 Build 0)  -->
<svg version="1.1" id="레이어_1" xmlns="http://www.w3.org/2000/svg" xmlns:xlink="http://www.w3.org/1999/xlink" x="0px"
	 y="0px" viewBox="0 0 2480 1481" style="enable-background:new 0 0 2480 1481;" xml:space="preserve">
<style type="text/css">
	.st0{font-family:'SegoeUI';}
	.st1{font-size:128px;}
</style>
<g id="사각형_6" transform="translate(320 570)">
	<g>
		<line x1="749" y1="-570" x2="-320" y2="-570"/>
		<line x1="-319.5" y1="-569.5" x2="748.5" y2="-569.5"/>
		<path d="M-1054.1-569.5v1068h796.2C-385.2,487.2-485.1,380.3-485.1,250c0-137.8,111.7-249.5,249.5-249.5h1660.5l-1411-570H-1054.1
			z"/>
		<line x1="2160" y1="911" x2="2160" y2="-1"/>
		<line x1="2159.5" y1="-0.5" x2="2159.5" y2="910.5"/>
		<path d="M1926.9,0.5c137.8,0,249.5,111.7,249.5,249.5s-111.7,249.5-249.5,249.5H258.4l1239,411h1240v-911"/>
	</g>
</g>
<text transform="matrix(1 0 0 1 819.094 873)" class="st0 st1">BHONEY, KIM.</text>
</svg>
