<?xml version="1.0" encoding="utf-8"?>
<!-- Generator: Adobe Illustrator 24.1.1, SVG Export Plug-In . SVG Version: 6.00 Build 0)  -->
<svg version="1.1" id="레이어_1" xmlns="http://www.w3.org/2000/svg" xmlns:xlink="http://www.w3.org/1999/xlink" x="0px"
	 y="0px" viewBox="0 0 73 572" style="enable-background:new 0 0 73 572;" xml:space="preserve">
<style type="text/css">
	.st0{enable-background:new    ;}
	.st1{fill:none;stroke:#707070;stroke-miterlimit:10;}
</style>
<g id="그룹_8" transform="translate(-214 -177)">
	<g class="st0">
		<path class="st1" d="M238.8,309.7l-0.2,5.4l32.1,4.8l-0.2-5.4l3.8,0.5v24l-3.8-0.6l0.2-5.3l-32.1-4.8l0.2,5.4l-3.6-0.5v-24
			L238.8,309.7z"/>
		<path class="st1" d="M238.4,335.3l-0.2,3.7l22,3.3l-0.1-3.7l3.4,0.5v15.1l-4.1-0.8c3,3.3,4.7,6.9,4.7,11.4c0,4.3-1.9,6.7-4.9,7.1
			c3.8,4.3,4.9,7.7,4.9,11.9c0,6.1-3.5,7.8-8.7,7l-17.2-2.6l0.2,3.6l-3.2-0.5v-18l3.2,0.5l-0.1,3.1l14.7,2.2
			c4.3,0.7,5.8,0.5,5.8-2.5c0-2.8-2.3-4.7-6.2-5.3l-14.3-2.1l0.1,2.6l-3.2-0.5v-17l3.2,0.5l-0.1,3.2l14.7,2.2
			c4.3,0.7,5.8,0.4,5.8-2.5s-2.3-4.7-6.2-5.3l-14.3-2.1l0.1,2.8l-3.2-0.5v-17.7L238.4,335.3z"/>
		<path class="st1" d="M238.7,411.4c-2.6-2.9-4.1-6.2-4.1-10.8c0-4.6,2.4-8.2,7.5-7.5c11.5,1.8,4.2,18.4,12.6,19.6l1.6,0.2
			c2.8,0.4,4.5,0.2,4.5-1.9c0-2.1-1.4-3.1-7.3-3.9v-10c7.3,1.1,10.5,4.8,10.5,15c0,9.3-3.2,12.7-8.9,11.9l-15.1-2.3
			c-1.8-0.3-2.4,1-1.8,3.4l-3.2-0.5C233.8,416.7,234.9,412.1,238.7,411.4z M244,411.3l5.9,0.9c-2.5-2.6-1.5-6.9-6.5-7.6
			c-2.7-0.4-4.5,0.3-4.5,2.4C238.8,409.3,240.7,410.8,244,411.3z"/>
		<path class="st1" d="M233.5,426.6V437c-5.2-0.8-6.4,0.7-6.4,3.9c0,3.2,1.8,5.1,6.4,5.8l6.5,1c-2.8-2.7-4.3-6.3-4.3-10.9
			c0-5.7,3-10.2,14-8.6c11.9,1.8,14.4,7.7,14.4,13.3c0,3.8-0.8,7.1-3.1,9.6l2.5,0.2v11.2l-28.1-4.2c-8-1.2-12-7.2-12-17.3
			C223.4,430.5,225.6,425.4,233.5,426.6z M250.1,449.1c8.4,1.3,10.4,0.1,10.4-3.1c0-3.1-2-4.9-10.4-6.2c-8-1.2-9.8-0.1-9.8,3.1
			C240.3,446.2,242.1,447.9,250.1,449.1z"/>
		<path class="st1" d="M238.4,461.6l-0.2,4l22,3.3l-0.1-4.1l3.4,0.6v15.3l-25.3-3.8l0.2,4l-3.2-0.5v-19.3L238.4,461.6z M272.3,470.4
			c3.6,0.5,5.3,2,5.3,6.2c0,4.1-1.6,6-5.3,5.4c-3.6-0.5-5.3-2-5.3-6C267,471.8,268.7,469.8,272.3,470.4z"/>
		<path class="st1" d="M238.4,481.9l-0.2,3.7l22,3.3l-0.1-3.7l3.4,0.5v15.3l-4.1-0.8c3.1,3.3,4.7,6.4,4.7,10.6
			c0,6.2-3.5,8.5-8.7,7.8l-17.2-2.6l0.2,3.6l-3.2-0.5v-17.7l3.2,0.5l-0.2,2.7l15.1,2.3c4,0.6,5.3,0.1,5.3-2.4c0-2.7-2.2-4.7-5.7-5.2
			l-14.7-2.1l0.2,2.6l-3.2-0.5v-17.7L238.4,481.9z"/>
		<path class="st1" d="M234.6,536.6c0-9.4,3-15.9,14.8-14.1c13.2,2,14.6,9.2,14.6,16.2c0,9.7-3.7,14.7-15,12.7v-17.3
			c-10.2-1.5-11.2-0.2-11.2,3.7c0.1,4,2.6,5.3,8.1,6.2v7.5C239.1,550.4,234.6,545.7,234.6,536.6z M252.2,534.5v5.7
			c6,1,8.6,1.5,8.6-1.4C260.8,536.3,260,535.8,252.2,534.5z"/>
		<path class="st1" d="M234.6,568.2c0-9.4,3-15.9,14.8-14.1c13.2,2,14.6,9.2,14.6,16.2c0,9.7-3.7,14.7-15,12.7v-17.3
			c-10.2-1.5-11.2-0.2-11.2,3.7c0.1,4,2.6,5.3,8.1,6.2v7.5C239.1,582,234.6,577.3,234.6,568.2z M252.2,566.2v5.7
			c6,1,8.6,1.5,8.6-1.4C260.8,567.9,260,567.4,252.2,566.2z"/>
		<path class="st1" d="M238.4,583.8l-0.2,3.7l22,3.3l-0.1-3.7l3.4,0.5v15.3l-4.6-0.9c3.4,2.9,5.1,5.7,5.1,9.3c0,4.9-3.6,6.3-8.1,5.6
			l-5.6-0.9v-9.4l2.6,0.4c3.5,0.5,5.8,0.7,5.8-1.4c0-2.2-3.5-4.2-6.9-4.7l-13.6-2l0.2,7.1l-3.2-0.5v-22.2L238.4,583.8z"/>
	</g>
</g>
<rect x="-316.2" y="97.9" style="fill:none;" width="306.4" height="60"/>
<text transform="matrix(1 0 0 1 -316.2353 144.9375)"><tspan x="0" y="0" style="font-family:'GimletDisplay-BlackItalic'; font-size:55px;">Imagi</tspan><tspan x="173.4" y="0" style="font-family:'GimletDisplay-BlackItalic'; font-size:55px;">-</tspan></text>
</svg>
